HIERARCHY
ROOT Hips
{
    OFFSET   0.000000   0.000000   0.000000
    CHANNELS 6 Xposition Yposition Zposition Zrotation Xrotation Yrotation
    JOINT Chest
    {
        OFFSET   0.000000   8.007230   0.000000
        CHANNELS 3 Zrotation Xrotation Yrotation
        JOINT Chest2
        {
            OFFSET   0.000000  22.077100   0.000000
            CHANNELS 3 Zrotation Xrotation Yrotation
            JOINT Neck
            {
                OFFSET   0.000000  23.255100   0.000000
                CHANNELS 3 Zrotation Xrotation Yrotation
                JOINT Head
                {
                    OFFSET   0.000000  14.370100   1.956600
                    CHANNELS 3 Zrotation Xrotation Yrotation
                    End Site
                    {
                        OFFSET   0.000000  19.566000   0.000000
                    }
                }
            }
            JOINT LeftCollar
            {
                OFFSET   3.911900  19.017000  -0.467063
                CHANNELS 3 Zrotation Xrotation Yrotation
                JOINT LeftShoulder
                {
                    OFFSET  10.383700   0.000000   0.000000
                    CHANNELS 3 Zrotation Xrotation Yrotation
                    JOINT LeftElbow
                    {
                        OFFSET  26.662100   0.001193   0.000980
                        CHANNELS 3 Zrotation Xrotation Yrotation
                        JOINT LeftWrist
                        {
                            OFFSET  28.869000  -0.000059  -0.000082
                            CHANNELS 3 Zrotation Xrotation Yrotation
                            JOINT LeftFinger0
                            {
                                OFFSET   2.044650  -2.323450   3.252850
                                CHANNELS 3 Zrotation Xrotation Yrotation
                                JOINT LeftFinger01
                                {
                                    OFFSET   3.088130   0.000000   0.000000
                                    CHANNELS 3 Zrotation Xrotation Yrotation
                                    JOINT LeftFinger02
                                    {
                                        OFFSET   2.639460   0.000000   0.000000
                                        CHANNELS 3 Zrotation Xrotation Yrotation
                                        End Site
                                        {
                                            OFFSET   2.582190   0.000000   0.000000
                                        }
                                    }
                                }
                            }
                            JOINT LeftFinger1
                            {
                                OFFSET   8.364480   0.000000   3.252850
                                CHANNELS 3 Zrotation Xrotation Yrotation
                                JOINT LeftFinger11
                                {
                                    OFFSET   4.646930   0.000000   0.000000
                                    CHANNELS 3 Zrotation Xrotation Yrotation
                                    JOINT LeftFinger12
                                    {
                                        OFFSET   2.323470   0.000000   0.000000
                                        CHANNELS 3 Zrotation Xrotation Yrotation
                                        End Site
                                        {
                                            OFFSET   2.273050   0.000000   0.000000
                                        }
                                    }
                                }
                            }
                            JOINT LeftFinger2
                            {
                                OFFSET   8.364490   0.000016   1.078090
                                CHANNELS 3 Zrotation Xrotation Yrotation
                                JOINT LeftFinger21
                                {
                                    OFFSET   5.111610   0.000000   0.000000
                                    CHANNELS 3 Zrotation Xrotation Yrotation
                                    JOINT LeftFinger22
                                    {
                                        OFFSET   2.788150   0.000016   0.000000
                                        CHANNELS 3 Zrotation Xrotation Yrotation
                                        End Site
                                        {
                                            OFFSET   2.727660   0.000000   0.000000
                                        }
                                    }
                                }
                            }
                            JOINT LeftFinger3
                            {
                                OFFSET   7.899780   0.000015  -1.078090
                                CHANNELS 3 Zrotation Xrotation Yrotation
                                JOINT LeftFinger31
                                {
                                    OFFSET   4.646930   0.000000   0.000000
                                    CHANNELS 3 Zrotation Xrotation Yrotation
                                    JOINT LeftFinger32
                                    {
                                        OFFSET   2.323470   0.000000   0.000000
                                        CHANNELS 3 Zrotation Xrotation Yrotation
                                        End Site
                                        {
                                            OFFSET   2.273050   0.000000   0.000000
                                        }
                                    }
                                }
                            }
                            JOINT LeftFinger4
                            {
                                OFFSET   7.435090   0.000000  -3.252850
                                CHANNELS 3 Zrotation Xrotation Yrotation
                                JOINT LeftFinger41
                                {
                                    OFFSET   3.717550   0.000000   0.000000
                                    CHANNELS 3 Zrotation Xrotation Yrotation
                                    JOINT LeftFinger42
                                    {
                                        OFFSET   1.858770   0.000000   0.000000
                                        CHANNELS 3 Zrotation Xrotation Yrotation
                                        End Site
                                        {
                                            OFFSET   1.818440   0.000000   0.000000
                                        }
                                    }
                                }
                            }
                        }
                    }
                }
            }
            JOINT RightCollar
            {
                OFFSET  -3.911910  19.017000  -0.467062
                CHANNELS 3 Zrotation Xrotation Yrotation
                JOINT RightShoulder
                {
                    OFFSET -10.383700   0.000014   0.000000
                    CHANNELS 3 Zrotation Xrotation Yrotation
                    JOINT RightElbow
                    {
                        OFFSET -26.662100   0.001225   0.001091
                        CHANNELS 3 Zrotation Xrotation Yrotation
                        JOINT RightWrist
                        {
                            OFFSET -28.869000  -0.000020  -0.000085
                            CHANNELS 3 Zrotation Xrotation Yrotation
                            JOINT RightFinger0
                            {
                                OFFSET  -2.044650  -2.323490   3.252850
                                CHANNELS 3 Zrotation Xrotation Yrotation
                                JOINT RightFinger01
                                {
                                    OFFSET  -3.088130   0.000000   0.000000
                                    CHANNELS 3 Zrotation Xrotation Yrotation
                                    JOINT RightFinger02
                                    {
                                        OFFSET  -2.639460   0.000000   0.000000
                                        CHANNELS 3 Zrotation Xrotation Yrotation
                                        End Site
                                        {
                                            OFFSET  -2.582190   0.000000   0.000000
                                        }
                                    }
                                }
                            }
                            JOINT RightFinger1
                            {
                                OFFSET  -8.364480   0.000000   3.252850
                                CHANNELS 3 Zrotation Xrotation Yrotation
                                JOINT RightFinger11
                                {
                                    OFFSET  -4.646930   0.000000   0.000000
                                    CHANNELS 3 Zrotation Xrotation Yrotation
                                    JOINT RightFinger12
                                    {
                                        OFFSET  -2.323470   0.000000   0.000000
                                        CHANNELS 3 Zrotation Xrotation Yrotation
                                        End Site
                                        {
                                            OFFSET  -2.273050   0.000000   0.000000
                                        }
                                    }
                                }
                            }
                            JOINT RightFinger2
                            {
                                OFFSET  -8.364480   0.000000   1.078090
                                CHANNELS 3 Zrotation Xrotation Yrotation
                                JOINT RightFinger21
                                {
                                    OFFSET  -5.111620   0.000000   0.000000
                                    CHANNELS 3 Zrotation Xrotation Yrotation
                                    JOINT RightFinger22
                                    {
                                        OFFSET  -2.788160   0.000000   0.000000
                                        CHANNELS 3 Zrotation Xrotation Yrotation
                                        End Site
                                        {
                                            OFFSET  -2.727660   0.000000   0.000000
                                        }
                                    }
                                }
                            }
                            JOINT RightFinger3
                            {
                                OFFSET  -7.899780   0.000000  -1.078090
                                CHANNELS 3 Zrotation Xrotation Yrotation
                                JOINT RightFinger31
                                {
                                    OFFSET  -4.646930   0.000000   0.000000
                                    CHANNELS 3 Zrotation Xrotation Yrotation
                                    JOINT RightFinger32
                                    {
                                        OFFSET  -2.323470   0.000000   0.000000
                                        CHANNELS 3 Zrotation Xrotation Yrotation
                                        End Site
                                        {
                                            OFFSET  -2.273050   0.000000   0.000000
                                        }
                                    }
                                }
                            }
                            JOINT RightFinger4
                            {
                                OFFSET  -7.435090   0.000000  -3.252850
                                CHANNELS 3 Zrotation Xrotation Yrotation
                                JOINT RightFinger41
                                {
                                    OFFSET  -3.717550   0.000000   0.000000
                                    CHANNELS 3 Zrotation Xrotation Yrotation
                                    JOINT RightFinger42
                                    {
                                        OFFSET  -1.858760   0.000000   0.000000
                                        CHANNELS 3 Zrotation Xrotation Yrotation
                                        End Site
                                        {
                                            OFFSET  -1.818440   0.000000   0.000000
                                        }
                                    }
                                }
                            }
                        }
                    }
                }
            }
        }
    }
    JOINT LeftHip
    {
        OFFSET   9.783030   0.000000   0.000000
        CHANNELS 3 Zrotation Xrotation Yrotation
        JOINT LeftKnee
        {
            OFFSET   0.000063 -41.789100   0.000608
            CHANNELS 3 Zrotation Xrotation Yrotation
            JOINT LeftAnkle
            {
                OFFSET   0.000048 -41.133200  -0.000184
                CHANNELS 3 Zrotation Xrotation Yrotation
                JOINT LeftToe
                {
                    OFFSET   0.000000  -6.358960  14.674500
                    CHANNELS 3 Zrotation Xrotation Yrotation
                    End Site
                    {
                        OFFSET   0.000000   0.000000   3.913200
                    }
                }
            }
        }
    }
    JOINT RightHip
    {
        OFFSET  -9.783030   0.000000   0.000000
        CHANNELS 3 Zrotation Xrotation Yrotation
        JOINT RightKnee
        {
            OFFSET   0.000071 -41.789100   0.001239
            CHANNELS 3 Zrotation Xrotation Yrotation
            JOINT RightAnkle
            {
                OFFSET   0.000037 -41.133200  -0.000166
                CHANNELS 3 Zrotation Xrotation Yrotation
                JOINT RightToe
                {
                    OFFSET   0.000000  -6.358960  14.674500
                    CHANNELS 3 Zrotation Xrotation Yrotation
                    End Site
                    {
                        OFFSET   0.000000   0.000000   3.913200
                    }
                }
            }
        }
    }
}
MOTION
Frames: 6
Frame Time:   0.016667
  0.212704  89.676000  -0.039205  -5.614220 -19.272800  -4.241590  -0.043414  12.484900   5.020030  -1.285200  24.914600  10.435900   0.565837  -1.861110   0.019090   0.936436  -3.772540 -10.759700  -9.051410  -8.832570  -3.505030 -64.962400  27.398400  -9.046890  -0.103722  -7.004810 -19.408700  18.842600 -18.012600  10.764700  40.205300  36.547100 -62.957800 -34.321100   0.001383   0.002480 -12.160600   0.003167  -0.000112 -33.280500   5.765830  -8.703010 -27.587900   0.005226  -0.001599 -19.311500   0.004665   0.014186 -28.629400  -1.902130   3.479460 -38.806800   0.000861   0.000145 -25.845300   0.000488   0.003274 -28.743500  -1.908450   3.475970 -41.973900  -0.007771  -0.003714 -27.954600   0.003205   0.004774 -34.321000  -2.238170   3.273790 -51.577400  -0.006628  -0.003575 -34.350600   0.003541  -0.002659   9.542190  -9.732210  11.331200  45.052200  -8.189690  47.808300 -23.273400 -11.810000  23.424600 -16.546100 -66.365100  -5.659710 -40.844200  45.495800  83.427400  35.564600  -0.634780  -0.801081  15.497200  -0.612814  -0.285390  61.343000   1.046700   0.153996  48.535100   0.012989   0.137448  35.752900   0.106270   0.023642  51.957400  -3.145320  -3.195690  54.070500  -0.042182   0.149467  39.942600   0.059120   0.091320  50.294000  -5.758260  -4.984210  53.857500  -0.038564   0.046645  39.637000   0.006260   0.043715  57.656500  -7.875070  -4.381110  88.096400  -0.082312  -0.088471  59.070500  -0.072344   0.029625   3.916850  20.850100   5.084730   1.582430   0.029631   4.665390  -2.286310  -2.654110   0.468797   0.000000   0.000000  -0.000000   5.768170  17.172800  -5.323160  -3.378270   7.064780  -7.583670   2.065380  -5.191910   3.800680  -0.000000   0.000000   0.000000
  0.315843  89.647000   0.019650  -5.723190 -19.266700  -4.775900   0.006715  12.520400   5.293490  -1.250430  24.984600  10.994300   0.488840  -2.095750   0.019884   0.805968  -4.248630 -10.492500  -9.196070  -8.950640  -3.629530 -64.976400  27.494800  -9.106450  -0.059083  -6.905120 -19.342100  18.867000 -17.795800  10.762200  40.138000  36.412400 -62.691800 -34.326400   0.001479   0.002782 -12.163200   0.003063  -0.000080 -33.239300   5.794030  -8.757360 -27.559000   0.005224  -0.001596 -19.291300   0.004666   0.014149 -28.626700  -1.885810   3.450120 -38.734700   0.000856   0.000147 -25.797300   0.000484   0.003274 -28.745100  -1.892270   3.446570 -41.909200  -0.007748  -0.003710 -27.911500   0.003198   0.004774 -34.273800  -2.216480   3.248020 -51.505000  -0.006611  -0.003573 -34.302300   0.003536  -0.002626   9.365370  -9.565640  11.485300  42.935500  -4.950160  48.922100 -24.894200 -11.434500  26.626100 -22.136500 -67.779200 -13.188200 -34.676900  42.802400  76.336500  53.816100  -0.750560  -0.393497  27.438000  -0.645602  -0.011784  75.820300   1.896520  -0.304072  59.465900  -0.046882   0.310722  44.771900   0.145289   0.195587  65.254100  -1.815560  -0.917279  64.586700  -0.049856   0.162494  48.608000   0.078173   0.104791  59.046400  -5.865010  -3.349140  58.364100  -0.073704   0.102923  43.987300   0.028147   0.089773  68.886800  -9.279560  -3.623670 102.348000  -0.089649  -0.030167  70.820100  -0.048904   0.056720   3.753700  20.901500   5.204710   1.688190   0.057439   4.987360  -2.254640  -2.738600   0.622272  -0.000000   0.000000  -0.000000   5.676500  17.155400  -5.382100  -3.475970   7.071930  -7.211490   2.133730  -5.105020   4.127020  -0.000000   0.000000   0.000000
  0.429991  89.604600   0.071266  -5.742490 -19.193800  -4.954340   0.072803  12.533000   5.491430  -1.167370  25.011100  11.401600   0.416155  -2.342770   0.020704   0.695402  -4.749910 -10.241300  -9.270540  -9.058670  -3.703190 -65.087200  27.520400  -9.147330  -0.025715  -6.704850 -19.358400  19.013000 -17.735000  10.755900  39.987100  36.262600 -62.428100 -34.433900   0.001581   0.003093 -12.216900   0.002951  -0.000046 -33.288800   5.817280  -8.774640 -27.602500   0.005224  -0.001590 -19.321800   0.004664   0.014107 -28.631400  -1.890400   3.457840 -38.816200   0.000849   0.000151 -25.851500   0.000479   0.003275 -28.744100  -1.896700   3.454390 -42.038800  -0.007217  -0.003704 -27.997800   0.003189   0.004775 -34.356800  -2.227830   3.251180 -51.629800  -0.006594  -0.003569 -34.385400   0.003531  -0.002594   9.052930  -9.047280  11.478900  41.209700  -2.392660  49.846500 -26.780500 -12.989500  31.315200 -28.669100 -67.691900 -22.185500 -29.793400  44.508900  71.578500  65.820500  -0.563634  -0.063801  36.322300  -0.394927   0.136685  86.163700   3.914340  -0.098276  70.033000  -0.045930   0.226528  52.717200   0.107322   0.140894  75.498200  -0.578616  -0.026748  74.826100  -0.044082   0.130458  56.305600   0.064152   0.081595  66.087200  -5.510410  -2.355870  65.168200  -0.065290   0.105661  49.112100   0.040254   0.086729  77.873400  -9.829230  -2.176480 109.297000  -0.039861  -0.004545  78.263300  -0.015877   0.025435   3.578280  20.857500   5.334370   1.824330   0.055452   5.123530  -2.248930  -2.781100   0.620690  -0.000000   0.000000   0.000000   5.617800  17.088800  -5.453690  -3.535660   7.057230  -7.022530   2.176690  -5.049470   4.334710   0.000000   0.000000   0.000000
  0.541920  89.554600   0.135512  -5.727380 -19.085200  -4.976850   0.149116  12.535900   5.616730  -1.034360  25.022900  11.633200   0.367301  -2.594100   0.021535   0.606622  -5.259810 -10.004000  -9.294190  -9.165120  -3.730090 -65.220100  27.544800  -9.207090  -0.019592  -6.562830 -19.429900  19.117900 -17.716500  10.736600  39.821200  36.125500 -62.203200 -34.588000   0.001686   0.003406 -12.294000   0.002838   0.000000 -33.364500   5.844670  -8.791040 -27.666000   0.005225  -0.001582 -19.366200   0.004662   0.014061 -28.636200  -1.895000   3.465560 -38.928200   0.000841   0.000156 -25.926100   0.000474   0.003276 -28.742900  -1.901130   3.462210 -42.245700  -0.006317  -0.003698 -28.135600   0.003180   0.004776 -34.492000  -2.239190   3.254340 -51.833300  -0.006576  -0.003565 -34.521000   0.003526  -0.002553   8.778100  -8.343020  11.468000  39.730100  -0.152146  50.271900 -28.322000 -16.550700  36.984200 -31.970000 -67.160800 -28.070900 -25.765600  47.692200  67.243500  74.100600  -0.286978   0.118422  42.866500  -0.076496   0.200736  90.847900   5.358600   0.108285  79.259100  -0.039266   0.105978  59.444200   0.053779   0.060697  83.175700   0.144245   0.125840  83.739800  -0.029147   0.080077  62.804900   0.042607   0.043679  72.757100  -5.080790  -1.626360  72.755200  -0.044504   0.106052  54.566400   0.045563   0.070453  84.633500  -9.994540  -0.947719 111.248000   0.009928   0.004292  81.331400   0.005857  -0.005850   3.460240  20.785600   5.449080   1.948110   0.046562   5.145250  -2.247210  -2.807820   0.609472   0.000000   0.000000  -0.000000   5.575430  17.035900  -5.524610  -3.558710   7.029000  -6.970970   2.207850  -5.027920   4.418550   0.000000   0.000000   0.000000
  0.635865  89.502000   0.231531  -5.667570 -19.014800  -4.737210   0.235305  12.548200   5.667250  -0.860799  25.058000  11.703900   0.355961  -2.848740   0.022418   0.573478  -5.775960  -9.789680  -9.279140  -9.300150  -3.624200 -65.262300  27.853800  -9.358730  -0.046811  -6.726270 -19.562400  19.075700 -17.676600  10.652500  39.710200  36.057500 -62.101400 -34.687300   0.001799   0.003708 -12.343600   0.002731   0.000063 -33.405500   5.884560  -8.837910 -27.702300   0.005225  -0.001577 -19.391600   0.004664   0.014013 -28.638500  -1.875660   3.429750 -38.969300   0.000836   0.000162 -25.953500   0.000469   0.003274 -28.744900  -1.881920   3.426300 -42.393600  -0.005479  -0.003692 -28.234100   0.003173   0.004776 -34.599000  -2.220790   3.217710 -51.991800  -0.006556  -0.003562 -34.626600   0.003520  -0.002499   8.666180  -7.648560  11.580300  38.330500   1.939900  50.245100 -30.103400 -20.906700  42.970900 -30.929700 -67.312400 -29.415600 -23.163200  49.073700  64.807500  79.743200  -0.134403   0.105917  46.645700   0.002552   0.135590  89.922000   5.178920   0.097891  86.060000  -0.006910   0.051757  64.534000   0.033178   0.013394  88.071600   0.076295   0.064752  90.288400   0.001724   0.043966  67.705800   0.029436   0.007993  82.201100  -4.998150  -0.665467  82.218300  -0.003423   0.057936  61.650400   0.032387   0.020565  88.460000 -10.007400  -0.277623 110.624000   0.004964   0.004265  80.665600   0.005821  -0.005805   3.436340  20.729500   5.528910   2.012570   0.020882   5.080140  -2.249000  -2.844550   0.444464  -0.000000   0.000000  -0.000000   5.560940  17.047200  -5.579770  -3.550560   7.005120  -7.043900   2.245620  -5.053180   4.354770   0.000000   0.000000   0.000000
  0.716704  89.452600   0.354206  -5.523880 -18.961500  -4.196140   0.314913  12.556000   5.674600  -0.707244  25.079000  11.715600   0.354466  -3.087420   0.023382   0.587030  -6.259600  -9.584960  -9.242840  -9.422940  -3.429190 -65.265600  28.275300  -9.543490  -0.059923  -6.964370 -19.766500  19.028300 -17.656300  10.540400  39.682100  36.041300 -62.071100 -34.735500   0.001908   0.004005 -12.367700   0.002628   0.000140 -33.416600   5.932150  -8.903180 -27.718600   0.005224  -0.001573 -19.403000   0.004665   0.013960 -28.642900  -1.835160   3.355260 -38.979700   0.000831   0.000168 -25.960500   0.000464   0.003273 -28.748400  -1.841300   3.351900 -42.527500  -0.004602  -0.003686 -28.323300   0.003165   0.004775 -34.697400  -2.179750   3.143290 -52.135000  -0.006534  -0.003559 -34.721900   0.003514  -0.002427   8.636760  -6.963310  11.788100  37.160900   4.050310  49.940100 -31.606400 -25.537600  49.303800 -28.982900 -67.414900 -29.721000 -21.593700  50.194900  63.524800  82.501200  -0.032868   0.054303  48.285800   0.013845   0.042236  88.996100   4.999250   0.087504  90.453800   0.019735   0.019870  67.840200   0.020689  -0.008440  89.891300   0.008290   0.003665  94.726500   0.023433   0.015737  71.044800   0.017978  -0.012973  88.514900  -4.986430  -0.092328  89.064300   0.025284   0.006311  66.798200   0.013508  -0.016090  89.681600 -10.009200  -0.054596 110.000000   0.000000   0.004213  79.999900   0.005753  -0.005727   3.423120  20.663300   5.582730   2.033770   0.002113   4.898610  -2.261160  -2.879770   0.120295   0.000000   0.000000  -0.000000   5.552340  17.094900  -5.607630  -3.514380   6.979790  -7.260000   2.268830  -5.126240   4.176120  -0.000000   0.000000  -0.000000
